HIERARCHY
ROOT hip
{
	OFFSET 0.000000 0.000000 0.000000 
	CHANNELS 6 Xposition Yposition Zposition Xrotation Zrotation Yrotation
	JOINT abdomen
	{
		OFFSET 0.000000 3.402643 0.000000 
		CHANNELS 3 Xrotation Zrotation Yrotation
		JOINT chest
		{
			OFFSET 0.000000 8.438565 -0.680529 
			CHANNELS 3 Xrotation Zrotation Yrotation
			JOINT neck
			{
				OFFSET 0.000000 10.207942 -0.272212 
				CHANNELS 3 Xrotation Zrotation Yrotation
				JOINT head
				{
					OFFSET 0.000000 3.130431 0.000000 
					CHANNELS 3 Xrotation Zrotation Yrotation
					End Site
					{
						OFFSET 0.000000 3.130435 0.000000 
					}
				}
			}
			JOINT lCollar
			{
				OFFSET 3.470700 6.669187 -0.816635 
				CHANNELS 3 Yrotation Zrotation Xrotation
				JOINT lShldr
				{
					OFFSET 3.198488 0.000000 0.000000 
					CHANNELS 3 Zrotation Yrotation Xrotation
					JOINT lForeArm
					{
						OFFSET 10.139888 0.000000 0.000000 
						CHANNELS 3 Yrotation Zrotation Xrotation
						JOINT lHand
						{
							OFFSET 8.370511 0.000000 0.000000 
							CHANNELS 3 Zrotation Yrotation Xrotation
							End Site
							{
								OFFSET 4.083176 0.000000 0.000000 
							}
						}
					}
				}
			}
			JOINT rCollar
			{
				OFFSET -3.470700 6.669187 -0.816635 
				CHANNELS 3 Yrotation Zrotation Xrotation
				JOINT rShldr
				{
					OFFSET -3.198488 0.000000 0.000000 
					CHANNELS 3 Zrotation Yrotation Xrotation
					JOINT rForeArm
					{
						OFFSET -10.139888 0.000000 0.000000 
						CHANNELS 3 Yrotation Zrotation Xrotation
						JOINT rHand
						{
							OFFSET -8.370511 0.000000 0.000000 
							CHANNELS 3 Zrotation Yrotation Xrotation
							End Site
							{
								OFFSET -4.083176 0.000000 0.000000 
							}
						}
					}
				}
			}
		}
	}
	JOINT lThigh
	{
		OFFSET 5.308129 -1.633274 1.361059 
		CHANNELS 3 Xrotation Zrotation Yrotation
		JOINT lShin
		{
			OFFSET -2.041588 -20.007561 0.000000 
			CHANNELS 3 Xrotation Zrotation Yrotation
			JOINT lFoot
			{
				OFFSET 0.000000 -19.190928 -1.224953 
				CHANNELS 3 Xrotation Yrotation Zrotation
				End Site
				{
					OFFSET 0.000000 -2.449906 4.627600 
				}
			}
		}
	}
	JOINT rThigh
	{
		OFFSET -5.308129 -1.633274 1.361059 
		CHANNELS 3 Xrotation Zrotation Yrotation
		JOINT rShin
		{
			OFFSET 2.041588 -20.007561 0.000000 
			CHANNELS 3 Xrotation Zrotation Yrotation
			JOINT rFoot
			{
				OFFSET 0.000000 -19.190928 -1.224953 
				CHANNELS 3 Xrotation Yrotation Zrotation
				End Site
				{
					OFFSET 0.000000 -2.449906 4.627600 
				}
			}
		}
	}
}
MOTION
Frames: 14
Frame Time: 0.033333
32.994873 50.640244 71.724220 -6.582031 8.193360 16.103516 41.742161 -2.314473 -7.357425 -10.458985 11.777345 3.105469 51.063168 8.107644 2.471410 -36.279301 -33.183590 2.226561 2.000000 -2.000000 0.000000 -70.390625 11.318358 -28.447269 -80.085510 -0.277486 -2.630658 31.597668 58.947102 13.460119 -2.000000 2.000000 0.000000 86.455078 -51.669922 -78.464684 113.075287 -1.190122 -2.794071 -44.412178 -49.326538 31.685080 -6.928049 -8.024166 15.999074 21.449226 -5.490697 -2.031200 -4.741023 11.268157 3.842459 -24.101158 -15.194819 -27.287020 -6.741703 5.219785 -0.404536 18.479465 -7.141401 8.405318 
32.699097 50.629204 71.092056 -6.591797 9.072267 16.708986 44.925991 -1.403164 -9.023656 -9.960938 11.240234 2.685547 51.063168 8.107644 2.471410 -41.289063 -34.414059 8.242188 2.000000 -2.000000 0.000000 -67.236328 -1.162109 -23.427931 -84.126083 -0.166007 -2.901185 28.314775 55.410999 12.781327 -2.000000 2.000000 0.000000 88.359375 -51.093754 -76.208771 112.697548 -1.505355 -2.587453 -44.290653 -47.510937 32.806610 -7.043352 -8.668214 17.067980 20.735260 -5.519574 -1.963330 -4.615117 10.285116 5.069095 -39.095299 -9.909262 -14.032429 0.252793 5.243196 -0.317456 14.800877 -6.311457 10.174312 
32.378330 50.697052 70.444176 -6.074219 8.896485 17.345261 47.892826 -0.450705 -10.415819 -9.472657 10.693360 2.255859 51.063168 8.107644 2.471410 -48.017578 -32.587887 14.882812 2.000000 -2.000000 0.000000 -64.130859 -14.130858 -19.211365 -88.683640 0.015693 -2.804166 26.077311 50.997284 13.801920 -2.000000 2.000000 0.000000 89.462891 -50.820313 -73.173828 111.838036 -1.193659 -2.901633 -44.075607 -46.180878 33.209293 -7.974227 -8.542746 18.020542 20.388374 -5.530415 -1.933984 -4.534436 9.851043 5.785336 -53.316685 -3.144504 -6.456466 8.732246 5.171074 0.448245 7.585834 -5.674986 12.460479 
32.063690 50.820168 69.855621 -4.794922 8.056641 17.412111 50.465576 0.525542 -11.541188 -9.150389 10.341799 1.837691 51.063168 8.107644 2.471410 -54.853519 -28.779295 20.898438 2.000000 -2.000000 0.000000 -60.722656 -26.250000 -15.707442 -93.431076 0.198105 -2.863640 24.819832 47.162426 14.634090 -2.000000 2.000000 0.000000 90.332031 -50.664066 -69.958725 110.959709 -1.163281 -2.919432 -44.873444 -45.187645 34.616657 -10.243992 -7.870674 18.178009 20.384192 -5.548981 -1.917551 -4.457949 9.713110 5.718040 -67.012901 2.597365 -7.996442 15.789064 5.010848 1.496741 -1.180685 -4.057557 13.545471 
31.804024 50.892391 69.414734 -3.193359 6.464844 17.393679 52.675087 1.299116 -12.659605 -8.828124 9.814453 1.368852 51.063168 8.107644 2.471410 -60.205078 -25.869141 25.161757 2.000000 -2.000000 0.000000 -56.025391 -38.066406 -15.439453 -98.534744 0.214939 -3.079736 26.398520 44.565189 15.802478 -2.000000 2.000000 0.000000 90.390625 -50.673828 -65.827866 109.734451 -1.114389 -2.750565 -47.266823 -45.155586 35.873718 -13.013341 -6.639822 17.970955 20.553303 -5.520215 -1.937292 -4.762898 10.123082 5.205891 -81.625313 5.869316 -13.432373 23.552883 4.804357 1.504204 -12.005548 -2.408835 14.316759 
31.618298 51.128983 69.300056 -1.601562 5.263672 17.256754 54.141129 1.936742 -13.496305 -8.837891 9.648438 1.132813 51.063168 8.107644 2.471410 -64.140625 -24.746094 27.822266 2.000000 -2.000000 0.000000 -49.013672 -48.876953 -17.353514 -103.969902 0.642620 -2.957875 28.605328 42.984955 16.695414 -2.000000 2.000000 0.000000 89.160156 -51.220703 -60.986328 108.342010 -0.618777 -3.200733 -51.042801 -45.290180 37.692539 -14.233191 -5.907909 17.641876 18.972202 -5.588435 -1.778751 -4.167796 10.253574 4.340760 -92.718376 7.226565 -18.931524 29.352581 4.535725 1.934271 -20.412220 -1.578269 15.650487 
31.534975 51.489849 69.567253 -0.361328 4.384766 17.373047 54.541626 2.456017 -14.096786 -8.857421 9.482423 0.890281 51.063168 8.107644 2.471410 -66.347656 -24.042967 28.984375 2.000000 -2.000000 0.000000 -42.304688 -55.273438 -18.300781 -108.189369 0.787166 -2.995595 31.358986 41.142643 18.622776 -2.000000 2.000000 0.000000 88.164063 -51.621094 -56.982422 106.930748 -0.716665 -3.030496 -52.805676 -45.952087 38.677837 -13.953911 -5.741805 17.640593 15.788599 -5.246339 -1.787727 -2.670356 9.649163 4.305495 -98.448479 7.744788 -22.494282 33.053642 4.380030 2.197782 -25.761883 -0.866265 16.494366 
31.526760 51.776131 70.095741 0.351563 4.189449 17.783936 54.561073 2.639934 -14.403973 -9.033203 9.492188 0.860986 51.063168 8.107644 2.471410 -67.636719 -23.632811 29.853518 2.000000 -2.000000 0.000000 -39.746094 -57.402344 -13.875417 -111.184685 0.529343 -3.224999 32.369240 39.415459 19.995190 -2.000000 2.000000 0.000000 87.226563 -51.201172 -54.773235 106.053558 -0.625538 -3.083893 -53.788902 -46.479748 40.349380 -12.882931 -6.180994 16.706146 12.960464 -5.750901 -1.246398 -1.683170 9.681254 4.482778 -100.299255 7.529646 -25.430798 34.822510 4.286996 2.160979 -29.128950 -1.108672 17.325815 
31.499334 51.921089 70.684624 1.230469 4.033203 18.359373 54.389130 2.739745 -14.565331 -9.228516 9.345704 0.763305 51.063168 8.107644 2.471410 -68.798828 -23.574217 30.341801 2.000000 -2.000000 0.000000 -40.195313 -57.148438 -5.486719 -113.470352 0.615962 -3.249567 33.504570 37.820313 21.559874 -2.000000 2.000000 0.000000 85.556641 -50.927731 -52.712658 105.008667 -0.567042 -3.080510 -53.965252 -47.398972 41.443314 -12.193161 -6.307619 16.320282 11.019263 -5.770811 -1.085179 -1.349875 9.419267 4.608139 -98.663445 7.423414 -26.150003 35.173088 4.263281 2.357433 -29.905546 -1.425444 17.457008 
31.479546 51.996170 71.378937 1.933594 4.033203 18.935547 53.873821 2.864516 -14.738396 -9.580076 9.365235 0.714480 51.063168 8.107644 2.471410 -69.580078 -23.593746 30.507814 2.000000 -2.000000 0.000000 -40.292969 -55.458981 2.304687 -115.046425 0.852027 -3.058026 33.654892 36.564449 23.169996 -2.000000 2.000000 0.000000 84.130859 -50.625000 -51.238018 104.481339 -0.547544 -3.079382 -53.792633 -48.457794 42.500195 -11.806042 -6.278930 16.147770 10.496347 -5.772610 -1.057924 -1.659707 8.921646 4.387005 -94.929230 7.168367 -25.805470 33.930229 4.218115 2.738322 -28.585222 -1.348557 16.635460 
31.474804 52.023827 72.205498 2.636719 4.023438 19.531250 53.333099 2.797395 -14.897520 -9.755859 9.375000 0.683594 51.063168 8.107644 2.471410 -70.000000 -23.681641 30.367174 2.000000 -2.000000 0.000000 -41.572266 -53.710941 9.033203 -115.749519 0.881275 -3.059723 33.471027 35.551647 24.190542 -2.000000 2.000000 0.000000 82.451172 -50.087891 -48.925777 103.761398 -0.590655 -3.179555 -54.115589 -48.845856 43.414532 -11.277361 -6.415678 15.760011 10.129311 -5.789238 -0.997877 -2.056080 8.518529 4.220603 -90.212845 6.650277 -23.984495 32.183983 4.420801 2.341390 -27.090528 -1.399891 16.870068 
31.501535 52.062626 73.214317 3.339844 4.033203 20.107424 52.622868 2.752664 -15.090345 -10.107421 9.414063 0.626598 51.063168 8.107644 2.471410 -70.224609 -23.818357 30.390627 2.000000 -2.000000 0.000000 -42.988281 -50.849609 13.662108 -115.573753 0.871526 -3.059157 33.506046 35.415970 25.620813 -2.000000 2.000000 0.000000 80.576172 -49.912109 -46.579739 103.949265 -0.361915 -3.244588 -54.007156 -48.889458 43.875889 -10.777995 -6.200339 15.356436 10.129309 -5.789243 -0.997877 -2.771147 7.659885 4.259603 -84.927246 6.172416 -22.715700 30.057426 4.413815 2.622175 -25.081295 -1.315641 15.860145 
31.590752 52.094032 74.410141 4.042969 4.023438 20.684278 51.735119 2.712924 -14.980157 -10.458984 9.599609 0.802410 51.063168 8.107644 2.471410 -70.126953 -24.179686 29.898348 2.000000 -2.000000 0.000000 -44.589840 -46.552734 17.102287 -114.335579 1.198741 -2.814331 32.096546 35.751392 26.271639 -2.000000 2.000000 0.000000 78.652336 -49.882816 -44.208984 104.300827 -0.371665 -3.245151 -53.495697 -48.923038 43.797287 -10.034554 -6.355896 14.777310 10.129314 -5.789231 -0.997876 -4.104724 7.175915 4.059737 -79.172012 5.479271 -20.707476 27.595396 4.525722 2.293311 -22.257805 -1.545476 15.568230 
31.685522 52.090572 75.752007 4.746094 4.023438 21.259766 50.679321 2.590201 -15.014083 -10.986328 9.638674 0.703125 51.063168 8.107644 2.471410 -70.009766 -24.550779 29.589844 2.000000 -2.000000 0.000000 -46.269531 -42.519531 19.277344 -112.419937 0.597981 -3.053067 31.808218 35.879074 27.783255 -2.000000 2.000000 0.000000 76.787109 -50.058594 -41.062180 104.827522 -0.567778 -3.236905 -53.457798 -48.676361 44.004002 -9.155272 -6.336458 14.537339 10.129514 -5.789353 -0.988143 -5.147694 6.433869 3.756104 -73.455223 4.384772 -18.929167 25.477606 4.657809 2.284863 -19.794949 -1.744947 15.293422 
